# xmcd CD database file
#
# Track frame offsets:
#	187
#	37222
#	83647
#	113330
#	147917
#
# Disc length: 2386 seconds
#
# Revision: 0
# Processed by: cddbd v1.5.2PL0 Copyright (c) Steve Scherf et al.
# Submitted via: CDex 1.70beta2
#
DISCID=38095005
DTITLE=AKIO SASAJIMA with JOE HENDERSON - "AKIO"
DYEAR=1987
DGENRE=Jazz
TTITLE0=Somewhere Along The Way
TTITLE1=Matsuri
TTITLE2=I Hear A Rhapsody
TTITLE3=Morning Lake
TTITLE4=Waltz For Evans
EXTD=YEAR: 1987
EXTT0=
EXTT1=
EXTT2=
EXTT3=
EXTT4=
PLAYORDER=
